<svg width="1024" height="1024" viewBox="0 0 1024 1024" xmlns="http://www.w3.org/2000/svg">
  <defs>
    <!-- Deep indigo -> violet background -->
    <linearGradient id="bg" x1="0" y1="0" x2="1024" y2="1024" gradientUnits="userSpaceOnUse">
      <stop offset="0" stop-color="#4338CA"/>
      <stop offset="0.55" stop-color="#4F46E5"/>
      <stop offset="1" stop-color="#7C3AED"/>
    </linearGradient>

    <!-- Subtle top highlight for glassy depth -->
    <linearGradient id="sheen" x1="0" y1="0" x2="0" y2="1024" gradientUnits="userSpaceOnUse">
      <stop offset="0" stop-color="#ffffff" stop-opacity="0.16"/>
      <stop offset="0.45" stop-color="#ffffff" stop-opacity="0.0"/>
    </linearGradient>

    <!-- Inner shadow so the carved keyhole counter reads as recessed -->
    <filter id="carve" x="-25%" y="-25%" width="150%" height="150%">
      <feOffset dx="0" dy="7" in="SourceAlpha" result="off"/>
      <feGaussianBlur in="off" stdDeviation="7" result="blur"/>
      <feComposite in="blur" in2="SourceAlpha" operator="out" result="inner"/>
      <feColorMatrix in="inner" type="matrix"
        values="0 0 0 0 0.13
                0 0 0 0 0.10
                0 0 0 0 0.36
                0 0 0 0.6 0" result="shadow"/>
      <feMerge>
        <feMergeNode in="SourceGraphic"/>
        <feMergeNode in="shadow"/>
      </feMerge>
    </filter>

    <!-- macOS Big Sur style squircle (superellipse), ~22.37% corner radius.
         Corner spans ~229px; sides stay nearly straight between corners. -->
    <clipPath id="squircleClip">
      <path d="M 229 0
               L 795 0
               C 940 0 1024 84 1024 229
               L 1024 795
               C 1024 940 940 1024 795 1024
               L 229 1024
               C 84 1024 0 940 0 795
               L 0 229
               C 0 84 84 0 229 0 Z"/>
    </clipPath>
  </defs>

  <!-- Background squircle -->
  <g clip-path="url(#squircleClip)">
    <rect x="0" y="0" width="1024" height="1024" fill="url(#bg)"/>
    <rect x="0" y="0" width="1024" height="1024" fill="url(#sheen)"/>
  </g>

  <!--
    GLYPH: lowercase double-story "a" whose enclosed counter IS a keyhole.
    One white shape, even-odd fill: outer "a" silhouette MINUS the keyhole
    counter (round head on top + tapering slot below).
    Outer glyph spans x:312..712 (~400px, ~39% wide), y:286..712.
    Centered horizontally (mid x = 512), sits in the central band.
  -->
  <g filter="url(#carve)">
    <path fill="#F6F6FF" fill-rule="evenodd" d="

      M 512 286
      C 416 286 350 330 322 396
      L 396 428
      C 412 388 448 362 504 362
      C 572 362 610 398 610 466
      L 610 472
      C 520 472 450 484 406 510
      C 358 538 334 580 334 632
      C 334 680 372 712 442 712
      C 508 712 566 684 610 636
      L 610 706
      L 704 706
      L 704 466
      C 704 350 638 286 512 286 Z

      M 547 466
      C 547 436 523 412 493 412
      C 463 412 439 436 439 466
      C 439 487 451 505 469 514
      L 451 628
      C 451 641 470 650 493 650
      C 516 650 535 641 535 628
      L 517 514
      C 535 505 547 487 547 466 Z
    "/>
  </g>
</svg>
