<svg width="32" height="32" viewBox="0 0 32 32" xmlns="http://www.w3.org/2000/svg">
  <!-- Monochrome macOS template: pure black, fill + alpha only, transparent bg -->
  <!-- Shield outline (filled ring via even-odd) + padlock glyph (locked) -->
  <path fill="#000000" fill-rule="evenodd"
    d="M16 2
       C 16 2 22.5 5 27 5.8
       C 27.7 5.9 28 6.4 28 7
       L 28 16.5
       C 28 23 23.4 27.4 16 30
       C 8.6 27.4 4 23 4 16.5
       L 4 7
       C 4 6.4 4.3 5.9 5 5.8
       C 9.5 5 16 2 16 2 Z
       M 16 4.6
       C 13.7 5.6 10.4 7 6.8 7.8
       L 6.8 16.5
       C 6.8 21.6 10.3 25.2 16 27.4
       C 21.7 25.2 25.2 21.6 25.2 16.5
       L 25.2 7.8
       C 21.6 7 18.3 5.6 16 4.6 Z"/>

  <!-- Padlock body -->
  <rect x="11" y="15.5" width="10" height="7.5" rx="1.4" fill="#000000"/>
  <!-- Padlock shackle (open-bottom arch) -->
  <path fill="none" stroke="#000000" stroke-width="2"
    d="M13 15.5 L13 13 a3 3 0 0 1 6 0 L19 15.5"/>
  <!-- Keyhole (cut out via background-colored... use transparency: small notch as separate) -->
</svg>
